<?xml version="1.0" encoding="utf-8"?>
<!-- Generator: Adobe Illustrator 21.0.2, SVG Export Plug-In . SVG Version: 6.00 Build 0)  -->
<svg version="1.1" id="Layer_1" xmlns="http://www.w3.org/2000/svg" xmlns:xlink="http://www.w3.org/1999/xlink" x="0px" y="0px"
	 viewBox="0 0 860 47.009" enable-background="new 0 0 860 47.009" xml:space="preserve">
<g>
	<path fill="#97837A" d="M449.303,23.96c-0.012-0.019-0.033-0.046-0.078-0.093c-0.226-0.234-0.039-0.507,0.065-0.626h0
		c0.002-0.002,0.003-0.004,0.005-0.006c0.03-0.034,0.053-0.056,0.053-0.056s-0.003,0.001-0.004,0.001
		c0.147-0.158,0.287-0.314,0.423-0.482c0.002-0.003,0.005-0.006,0.007-0.009c0.11-0.133,0.212-0.272,0.315-0.41
		c0.086-0.118,0.169-0.238,0.25-0.358c0.789-1.168,1.326-2.499,1.537-3.884c0.161-1.062,0.143-2.13-0.054-3.175
		c-0.191-1.015-0.546-1.989-1.056-2.897l-0.131-0.228c-0.548-0.928-1.244-1.753-2.071-2.452c-0.816-0.691-1.743-1.24-2.756-1.633
		c-1.803-0.699-3.821-0.839-5.712-0.41c-0.038,0.005-0.052,0.011-0.089,0.018c-0.389,0.082-0.523-0.05-0.566-0.121
		c-0.026-0.057-0.041-0.106-0.041-0.106l-0.033-0.1c-0.553-1.9-1.712-3.618-3.269-4.845c-0.847-0.668-1.791-1.187-2.809-1.542
		c-0.01-0.003-0.021-0.006-0.031-0.009c-0.215-0.074-0.433-0.139-0.652-0.198c-0.816-0.22-1.654-0.336-2.503-0.339l-0.227,0.002
		c-1.063,0.013-2.107,0.197-3.103,0.545c-1.015,0.354-1.96,0.873-2.809,1.542c-0.151,0.119-0.299,0.243-0.442,0.371
		c-0.144,0.129-0.284,0.262-0.42,0.399c-0.136,0.137-0.267,0.278-0.395,0.423c-0.127,0.145-0.25,0.294-0.368,0.446
		c-0.118,0.152-0.232,0.308-0.34,0.467c-0.109,0.159-0.213,0.321-0.312,0.486c-0.099,0.166-0.193,0.334-0.282,0.504
		c-0.089,0.171-0.173,0.344-0.252,0.52c-0.079,0.176-0.152,0.354-0.22,0.534c-0.068,0.18-0.13,0.362-0.187,0.547
		c-0.05,0.163-0.093,0.347-0.253,0.437c-0.096,0.054-0.21,0.066-0.318,0.054c-0.036-0.004-0.072-0.009-0.106-0.019l-0.061-0.016
		c-1.9-0.435-3.929-0.291-5.734,0.41c-1.012,0.393-1.939,0.943-2.756,1.633c-0.828,0.701-1.525,1.526-2.072,2.454l-0.114,0.2
		c-0.518,0.913-0.878,1.896-1.072,2.924c-0.148,0.783-0.195,1.579-0.141,2.376c0.001,0.012,0.003,0.023,0.004,0.035
		c0.017,0.208,0.035,0.416,0.065,0.624c0.002,0.014,0.006,0.027,0.008,0.041c0.005,0.033,0.006,0.066,0.011,0.099
		c0.29,1.899,1.134,3.642,2.442,5.047l0.055,0.068c0.012,0.014,0.276,0.344,0.008,0.635c-0.04,0.044-0.054,0.064-0.09,0.103
		c-1.324,1.403-2.213,3.219-2.501,5.111c-0.161,1.061-0.144,2.13,0.053,3.175c0.199,1.057,0.574,2.067,1.114,3l0.089,0.148
		c0.131,0.22,0.276,0.433,0.425,0.643c0.012,0.016,0.021,0.033,0.033,0.049c0.074,0.105,0.157,0.203,0.236,0.305
		c0.109,0.14,0.219,0.281,0.336,0.415c0.02,0.023,0.036,0.047,0.056,0.07c0.109,0.122,0.219,0.24,0.33,0.353
		c0.06,0.062,0.121,0.118,0.182,0.176c0.049,0.048,0.099,0.098,0.148,0.144c0.051,0.047,0.095,0.083,0.142,0.126
		c0.056,0.049,0.114,0.103,0.168,0.148c0.818,0.691,1.745,1.241,2.756,1.633c0.239,0.092,0.482,0.169,0.727,0.24
		c-0.384,0.312-0.711,0.637-0.904,0.871c-0.104,0.126-0.177,0.231-0.228,0.318c-0.117,0.173-0.187,0.332-0.126,0.415
		c0.046,0.063,0.167,0.08,0.238,0.045c0.724-0.357,1.784-0.676,2.512-0.873c-1.161,0.965-1.612,2.104-1.634,2.16
		c-0.026,0.067-0.003,0.143,0.056,0.185c0.042,0.03,0.094,0.029,0.141,0.016c0,0,0.006-0.003,0.012-0.006
		c0.014-0.006,0.03-0.006,0.043-0.016c0.014-0.012,0.03-0.022,0.044-0.033c0.322-0.179,1.39-0.758,2.195-1.032
		c0.531-0.181,1.076-0.365,1.641-0.399c1.254-0.074,2.28,0.795,3.094,1.632c0.506,0.52,1.004,1.048,1.516,1.571
		c0.296,0.313,2.479,2.479,6.223,2.527c0.225,0,0.438-0.01,0.643-0.025c0.962-0.04,1.908-0.213,2.815-0.53
		c1.015-0.354,1.96-0.873,2.809-1.542c0.19-0.149,0.374-0.307,0.552-0.471c1.277-1.176,2.227-2.695,2.713-4.353L439.3,40
		c0.001-0.002,0.007-0.017,0.018-0.035c0.041-0.071,0.169-0.228,0.483-0.167c0.044,0.008,0.074,0.016,0.092,0.021
		c0.752,0.18,1.516,0.272,2.27,0.272c1.223,0,2.42-0.224,3.557-0.665c1.011-0.392,1.938-0.942,2.756-1.633
		c0.398-0.337,0.766-0.705,1.103-1.1c0.349-0.41,0.665-0.848,0.943-1.314l0.099-0.165c0.539-0.932,0.914-1.941,1.113-2.998
		c0.197-1.045,0.215-2.114,0.053-3.175C451.494,27.121,450.634,25.372,449.303,23.96z M451.509,14.921
		c0.19,1.012,0.208,2.045,0.051,3.071c-0.256,1.683-0.998,3.29-2.094,4.583c-0.093,0.109-0.19,0.215-0.286,0.32
		c-0.03,0.025-0.055,0.043-0.086,0.063c-0.126,0.085-0.258,0.106-0.411,0.11c-0.154,0.005-0.286-0.044-0.421-0.115
		c-0.098-0.052-0.193-0.112-0.286-0.175c-0.112-0.082-0.223-0.163-0.338-0.24c-0.051-0.037-0.101-0.074-0.152-0.11
		c-0.173-0.122-0.345-0.247-0.515-0.373c-0.098-0.073-0.197-0.146-0.291-0.224c-0.024-0.02-0.053-0.041-0.082-0.064
		c-0.083-0.071-0.159-0.166-0.143-0.282c0.005-0.04,0.024-0.075,0.047-0.108c0.072-0.084,0.154-0.137,0.154-0.137
		c1.209-0.752,2.269-1.685,3.154-2.778c0.085-0.106,0.162-0.201,0.237-0.3c0.036-0.048,0.072-0.096,0.107-0.145l0.044-0.06
		l0.009-0.013c0.006-0.009,0.01-0.017,0.015-0.026c0.035-0.055,0.072-0.109,0.105-0.164c0.018-0.031,0.032-0.064,0.05-0.095
		c0.711-1.189,0.954-2.558,0.719-3.879c-0.057-0.321-0.133-0.64-0.246-0.951C451.151,13.498,451.373,14.198,451.509,14.921z
		 M445.692,7.946c0.979,0.38,1.876,0.911,2.665,1.58c0.569,0.481,1.073,1.023,1.507,1.617c-0.245-0.288-0.521-0.542-0.813-0.774
		c-1.11-0.88-2.522-1.341-4.001-1.24l-0.065,0.006c-0.067,0.007-0.134,0.013-0.202,0.022c-0.127,0.015-0.253,0.034-0.382,0.053
		c-1.568,0.236-3.062,0.754-4.442,1.54c-0.501,0.286-0.996,0.616-1.475,0.984c-0.274,0.241-0.744,0.68-1.203,1.227
		c-0.451,0.538-0.892,1.18-1.123,1.843c-0.332,0.948-0.361,1.596-0.089,1.928c-0.037,0.007-0.077,0.011-0.118,0.014
		c-0.06,0.006-0.121,0.009-0.181,0.012c-0.212-0.023-0.394-0.092-0.54-0.207c-0.332-0.26-0.416-0.43-0.483-0.567
		c-0.028-0.057-0.055-0.111-0.094-0.161c-0.089-0.112-0.234-0.182-0.413-0.2c-0.019-0.004-0.037-0.004-0.056-0.004
		c-0.065,0-0.139,0.01-0.222,0.03l-0.019,0.004c-0.035,0.009-0.092,0.022-0.132,0.03c-0.161,0.031-0.292,0.01-0.412-0.069
		c-0.012-0.008-0.024-0.017-0.035-0.026c-0.012-0.009-0.023-0.019-0.031-0.025c-0.173-0.167-0.277-0.391-0.316-0.542l-0.012-0.049
		l-0.002-0.033c-0.245-1.352,0.909-3.007,1.822-4.07c0.552-0.642,1.014-1.068,1.027-1.08c0.491-0.455,1.073-0.875,1.73-1.25
		C440.064,7.127,443.02,6.909,445.692,7.946z M437.328,15.815c-0.064,0.075-0.131,0.147-0.198,0.217
		c-0.08,0.074-0.177,0.151-0.287,0.206c-0.222,0.113-0.668,0.101-0.591-0.544c0.002-0.019,0.003-0.032,0.005-0.049
		c0.041-0.216,0.109-0.462,0.206-0.738c0.237-0.677,0.709-1.335,1.177-1.873c0.356-0.397,0.703-0.722,0.949-0.939
		c0.038-0.028,0.09-0.057,0.1-0.06c0.119-0.033,0.288,0,0.333,0.131c0.021,0.06,0.014,0.126-0.002,0.187
		c-0.279,0.935-0.827,2.439-1.681,3.448l0-0.001C437.339,15.8,437.335,15.806,437.328,15.815z M432.709,0.694
		c0.159,0.046,0.318,0.095,0.475,0.15c0.98,0.342,1.895,0.844,2.716,1.491c1.453,1.145,2.513,2.667,3.077,4.397
		c0.024,0.088,0.028,0.131,0.032,0.188c0.011,0.149-0.036,0.273-0.108,0.405c-0.073,0.134-0.181,0.223-0.309,0.303
		c-0.262,0.164-0.56,0.276-0.841,0.404c-0.192,0.087-0.385,0.173-0.579,0.256c-0.112,0.048-0.225,0.096-0.339,0.138
		c-0.029,0.011-0.062,0.025-0.097,0.038c-0.103,0.036-0.224,0.054-0.316-0.016c-0.043-0.032-0.071-0.079-0.088-0.13
		c-0.009-0.025-0.014-0.051-0.018-0.077c-0.001-0.008-0.007-0.038-0.012-0.067c-0.001-0.018-0.002-0.036-0.003-0.054
		c0.001-0.002,0-0.008,0.003-0.006c0,0-0.002-0.001-0.003-0.001c-0.002-0.039-0.006-0.078-0.013-0.117
		c-0.069-1.354-0.353-2.674-0.854-3.94c-0.042-0.106-0.09-0.224-0.139-0.341c-0.023-0.052-0.046-0.104-0.07-0.156l-0.041-0.089
		c-0.824-1.659-2.376-2.796-4.177-3.11C431.582,0.419,432.151,0.531,432.709,0.694z M424.164,2.335
		c0.822-0.647,1.735-1.149,2.717-1.491c0.699-0.244,1.42-0.404,2.155-0.478c-0.082,0.014-0.16,0.039-0.241,0.057
		c-1.686,0.375-3.13,1.473-3.915,3.052l-0.025,0.056c-0.029,0.062-0.056,0.123-0.083,0.186c-0.049,0.112-0.095,0.228-0.136,0.332
		l-0.008,0.021c-0.578,1.46-0.871,2.999-0.871,4.572c0,0.571,0.042,1.16,0.126,1.754c0.147,0.705,0.589,2.458,1.527,3.526
		c0.594,0.677,1.097,1.023,1.502,1.045c0.047,0.005,0.093,0.003,0.138-0.001c-0.066,0.159-0.243,0.488-0.607,0.633
		c-0.121,0.048-0.218,0.076-0.305,0.097c-0.198,0.047-0.327,0.043-0.433,0.036c-0.064-0.005-0.124-0.009-0.188,0.001
		c-0.016,0.002-0.031,0.009-0.047,0.013c-0.129,0.033-0.248,0.118-0.338,0.248l-0.012,0.016c-0.041,0.063-0.075,0.143-0.105,0.249
		c-0.009,0.035-0.026,0.089-0.039,0.128c-0.05,0.146-0.13,0.244-0.257,0.314c-0.009,0.005-0.016,0.011-0.026,0.016
		c-0.238,0.073-0.498,0.051-0.66,0.005l-0.081-0.028c-2.098-0.749-3.079-4.969-3.089-5.012c-0.155-0.657-0.23-1.346-0.23-2.106
		C420.632,6.742,421.919,4.104,424.164,2.335z M424.269,10.402c0.039-0.106,0.108-0.181,0.233-0.183
		c0.12-0.002,0.322,0.172,0.414,0.271c0.686,0.747,1.638,1.936,2.015,3.118c0.021,0.128,0.037,0.305,0.004,0.474
		c-0.047,0.243-0.33,0.583-0.798,0.126c-0.061-0.06-0.104-0.098-0.133-0.12c-0.109-0.105-0.226-0.225-0.355-0.372
		c-0.763-0.869-1.182-2.239-1.371-3.013C424.266,10.643,424.238,10.486,424.269,10.402z M410.72,10.521
		c0.309-0.354,0.642-0.688,1.005-0.995c0.79-0.669,1.687-1.2,2.665-1.58c1.097-0.426,2.276-0.641,3.45-0.641
		c0.623,0,1.243,0.064,1.85,0.186c0.003,0.001,0.01,0.005,0.011,0.005c0.062,0.023,0.124,0.047,0.184,0.076
		c0.137,0.064,0.257,0.163,0.339,0.29c0.083,0.128,0.107,0.265,0.115,0.415c0.016,0.306-0.032,0.618-0.057,0.922
		c-0.017,0.208-0.037,0.417-0.059,0.624c-0.013,0.121-0.025,0.241-0.044,0.36c-0.005,0.031-0.009,0.065-0.014,0.102
		c-0.019,0.106-0.062,0.219-0.17,0.264c-0.05,0.021-0.105,0.022-0.157,0.012c-0.026-0.005-0.052-0.012-0.077-0.023
		c-0.007-0.003-0.037-0.012-0.065-0.023c-0.016-0.008-0.033-0.016-0.049-0.024c-0.001-0.002-0.007-0.004-0.004-0.005
		c0,0-0.002,0.002-0.002,0.002c-0.016-0.008-0.033-0.015-0.05-0.022c-1.231-0.629-2.546-1.053-3.911-1.258
		c-0.129-0.019-0.255-0.038-0.382-0.054c-0.045-0.005-0.089-0.01-0.134-0.014l-0.137-0.013c-1.869-0.125-3.64,0.636-4.816,2.023
		C410.371,10.933,410.542,10.725,410.72,10.521z M408.522,17.991c-0.004-0.025-0.005-0.051-0.008-0.075
		c-0.145-1.001-0.126-2.008,0.06-2.995c0.118-0.626,0.304-1.233,0.548-1.82c-0.154,0.533-0.233,1.078-0.226,1.625
		c-0.007,1.124,0.32,2.246,0.984,3.224l0.038,0.053c0.039,0.054,0.079,0.109,0.119,0.161c0.075,0.099,0.151,0.194,0.237,0.301
		c0.991,1.224,2.192,2.244,3.571,3.031c0.502,0.287,1.039,0.545,1.6,0.77c0.69,0.227,2.446,0.726,3.853,0.457
		c0.997-0.191,1.579-0.489,1.734-0.887c0.006,0.006,0.013,0.016,0.019,0.022c0.038,0.044,0.081,0.098,0.125,0.168
		c0.094,0.196,0.129,0.392,0.104,0.581c-0.056,0.415-0.161,0.573-0.246,0.7c-0.035,0.053-0.069,0.103-0.092,0.163
		c-0.052,0.135-0.039,0.294,0.039,0.456l0.01,0.021c0.037,0.07,0.094,0.142,0.171,0.217c0.026,0.025,0.063,0.064,0.089,0.092
		c0.037,0.041,0.067,0.083,0.089,0.123c0.04,0.102,0.061,0.192,0.061,0.266c-0.029,0.255-0.193,0.515-0.341,0.658l-0.064,0.054
		c-1.502,1.251-4.817,0.442-5.796,0.164l-0.132-0.039c-0.202-0.06-0.412-0.133-0.662-0.229l-0.029-0.011
		c-0.454-0.176-0.884-0.379-1.279-0.604C410.618,23.218,408.949,20.797,408.522,17.991z M415.353,21.561
		c0.028-0.1,0.144-0.148,0.2-0.165c0.628-0.152,1.728-0.374,2.827-0.374c0.642,0,1.185,0.084,1.638,0.234
		c0.101,0.04,0.213,0.096,0.31,0.171c0.172,0.133,0.328,0.457-0.05,0.672c-0.003,0.001-0.005,0.003-0.008,0.004
		c-0.021,0.012-0.051,0.021-0.075,0.032c-0.056,0.024-0.114,0.048-0.177,0.07c-0.027,0.009-0.05,0.017-0.069,0.025
		c-0.203,0.068-0.44,0.128-0.712,0.181c-1.299,0.248-2.958-0.211-3.605-0.417C415.373,21.894,415.316,21.694,415.353,21.561z
		 M408.487,32.12c-0.191-1.012-0.208-2.045-0.051-3.07c0.262-1.722,1.038-3.369,2.177-4.676c0.001-0.001,0.003-0.002,0.004-0.003
		c0.05-0.042,0.102-0.084,0.156-0.122c0.123-0.088,0.27-0.143,0.421-0.153c0.154-0.009,0.286,0.035,0.423,0.101
		c0.279,0.134,0.532,0.327,0.789,0.496c0.176,0.116,0.351,0.234,0.525,0.353c0.1,0.069,0.201,0.139,0.297,0.213
		c0.025,0.019,0.054,0.039,0.083,0.061c0.085,0.068,0.164,0.16,0.151,0.275c-0.006,0.053-0.031,0.101-0.065,0.142
		c-0.017,0.02-0.036,0.039-0.057,0.055c-0.006,0.005-0.029,0.026-0.052,0.045c-0.006,0.004-0.013,0.009-0.019,0.013
		c-0.009,0.006-0.018,0.012-0.027,0.018c-0.003,0.001-0.006,0.003-0.006,0.001c0,0,0,0.002,0.001,0.002
		c-1.164,0.74-2.192,1.645-3.051,2.705c-0.079,0.097-0.16,0.198-0.237,0.3c-0.045,0.059-0.089,0.119-0.133,0.179l-0.028,0.039
		c-1.019,1.501-1.246,3.348-0.67,5.017c0.013,0.036,0.02,0.074,0.033,0.11C408.848,33.552,408.624,32.848,408.487,32.12z
		 M414.482,39.172c-0.067-0.024-0.135-0.044-0.202-0.07c-0.974-0.384-1.868-0.921-2.656-1.594c-0.261-0.223-0.507-0.461-0.741-0.71
		c-0.013-0.014-0.028-0.028-0.041-0.042c-0.035-0.037-0.067-0.077-0.101-0.115c-0.198-0.221-0.385-0.45-0.56-0.689
		c0.426,0.49,0.927,0.896,1.481,1.211c0.021,0.012,0.042,0.021,0.063,0.033c0.162,0.089,0.327,0.173,0.496,0.246
		c0.064,0.028,0.13,0.051,0.195,0.077c0.125,0.049,0.251,0.097,0.38,0.137c0.106,0.034,0.213,0.061,0.321,0.088
		c0.088,0.022,0.175,0.044,0.264,0.062c0.146,0.03,0.293,0.052,0.442,0.071c0.05,0.006,0.099,0.012,0.15,0.017
		c0.182,0.017,0.365,0.028,0.551,0.029c0.008,0,0.015,0.001,0.023,0.001c0.014,0,0.027-0.001,0.041-0.001
		c0.12-0.001,0.241-0.004,0.359-0.012l0.061-0.007c0.068-0.007,0.136-0.013,0.205-0.022c0.127-0.015,0.257-0.034,0.382-0.053
		c1.569-0.236,3.063-0.754,4.442-1.541c0.501-0.286,0.996-0.616,1.475-0.984c0.544-0.478,1.86-1.734,2.327-3.07
		c0.239-0.683,0.281-1.206,0.247-1.596c-0.009-0.103-0.022-0.199-0.04-0.284c0.044-0.006,0.093-0.01,0.148-0.012
		c0.218,0.018,0.407,0.087,0.559,0.205c0.334,0.257,0.419,0.427,0.487,0.563c0.029,0.057,0.055,0.11,0.096,0.16
		c0.091,0.112,0.237,0.182,0.418,0.198l0.024,0.003c0.079,0.001,0.171-0.009,0.276-0.037c0.035-0.009,0.087-0.021,0.125-0.029
		c0.046-0.009,0.089-0.012,0.128-0.011c0.012,0,0.025,0,0.037,0c0.232,0.015,0.358,0.117,0.402,0.168
		c0.107,0.131,0.195,0.302,0.235,0.454l0.015,0.063l-0.001,0l0.001,0.011c0,0.001,0.001,0.003,0.002,0.005l0.015,0.082
		c0.334,1.913-2.046,4.332-2.782,5.028l-0.101,0.093c-0.132,0.121-0.283,0.265-0.457,0.403c-0.264,0.213-0.537,0.403-0.81,0.572
		c-0.015,0.009-0.029,0.018-0.044,0.027c-0.017,0.01-0.033,0.019-0.049,0.029c0,0,0,0-0.001,0c-0.069,0.035-0.139,0.065-0.208,0.089
		c-0.058,0.018-0.115,0.037-0.174,0.048c-0.006,0.001-0.012,0.004-0.019,0.005c-0.185,0.033-0.376,0.032-0.564,0.01
		c-0.219-0.027-0.427-0.103-0.638-0.163c-0.218-0.063-0.437-0.122-0.657-0.179c-0.036-0.009-0.072-0.018-0.108-0.025
		c-0.563-0.122-1.147-0.13-1.718-0.069c-0.45,0.048-0.904,0.131-1.336,0.266c-0.437,0.135-0.856,0.322-1.272,0.51
		c-0.348,0.157-0.478,0.261-0.895,0.368C414.904,39.256,414.635,39.211,414.482,39.172z M420.813,34.789
		c0.048-0.156,0.098-0.311,0.151-0.466c0.133-0.387,0.282-0.768,0.449-1.141c0.053-0.118,0.108-0.235,0.167-0.354
		c0.1-0.203,0.207-0.407,0.324-0.605c0.309-0.522,0.637-0.94,0.979-1.248c0.103-0.08,0.251-0.178,0.415-0.231
		c0.229-0.074,0.558-0.006,0.484,0.569c-0.037,0.25-0.111,0.54-0.232,0.879c-0.326,0.918-0.996,1.709-1.68,2.391
		c-0.228,0.227-0.538,0.623-0.888,0.625c-0.043,0-0.087-0.005-0.123-0.028c-0.006-0.004-0.012-0.008-0.018-0.012
		C420.726,35.076,420.777,34.905,420.813,34.789z M428.408,46.559c-1.434-0.236-2.523-0.73-3.199-1.126
		c-0.202-0.133-0.401-0.271-0.595-0.416c-0.187-0.156-0.468-0.401-0.857-0.751c-0.542-0.489-1.17-1.547-2.227-2.387
		c-0.427-0.339-0.85-0.556-1.219-0.697c-1.319-0.504-2.566-0.099-3.81,0.404l-0.058,0.023c-0.417,0.168-0.78,0.345-1.099,0.533
		c0.317-0.534,0.927-1.361,1.922-1.965c0.067-0.041,0.094-0.123,0.065-0.195c-0.03-0.072-0.108-0.113-0.184-0.094
		c-0.078,0.018-1.706,0.391-2.932,0.895c0.126-0.153,0.274-0.32,0.401-0.444c0.16-0.156,0.341-0.312,0.552-0.476
		c0.635-0.495,1.306-0.863,1.995-1.093c0.658-0.22,1.925-0.552,3.017-0.312c2.341,0.514,3.325,1.655,4.322,3.581
		c0.305,0.589,0.819,1.523,1.264,2.217c0.697,1.087,1.438,1.859,2.65,2.215C428.467,46.5,428.565,46.563,428.408,46.559z
		 M439.116,39.427c-0.415,1.867-1.407,3.564-2.869,4.867c-0.144,0.128-0.291,0.253-0.443,0.373
		c-0.822,0.647-1.736,1.149-2.717,1.491c-0.475,0.166-0.962,0.289-1.456,0.377c-0.081,0.015-0.164,0.023-0.246,0.035
		c-0.033-0.014,0.029-0.045,0.029-0.045h0c0.821-0.222,1.574-0.62,2.217-1.16c0.595-0.5,1.097-1.116,1.456-1.839l0.014-0.031
		c0.032-0.07,0.064-0.139,0.095-0.21c0.052-0.121,0.1-0.241,0.144-0.353c0.578-1.461,0.871-2.999,0.871-4.572
		c0-0.571-0.042-1.16-0.126-1.754c-0.147-0.705-0.59-2.459-1.527-3.526c-0.612-0.697-1.129-1.048-1.54-1.048
		c-0.036,0-0.072,0.002-0.106,0.008c0.008-0.026,0.018-0.052,0.029-0.078c0.056-0.118,0.167-0.302,0.35-0.445
		c0.072-0.056,0.152-0.107,0.249-0.144c0.395-0.15,0.585-0.133,0.739-0.122c0.064,0.006,0.125,0.011,0.189,0.001
		c0.094-0.012,0.185-0.055,0.27-0.127c0.002-0.001,0.002-0.003,0.004-0.004c0.051-0.044,0.094-0.089,0.127-0.139
		c0.015-0.022,0.028-0.048,0.046-0.083c0.027-0.056,0.047-0.107,0.063-0.165c0.009-0.033,0.026-0.086,0.04-0.124
		c0-0.001,0.001-0.002,0.001-0.002c0.078-0.218,0.21-0.293,0.295-0.328c0.196-0.052,0.435-0.051,0.622,0.002l0.081,0.029
		c2.113,0.754,3.051,4.92,3.061,4.966l0.013,0.043c0.068,0.289,0.119,0.582,0.159,0.877c0.055,0.408,0.086,0.819,0.086,1.231
		C439.336,38.108,439.26,38.778,439.116,39.427z M435.744,36.524c0.016,0.149-0.068,0.305-0.215,0.352
		c-0.103,0.033-0.234-0.057-0.304-0.114c-0.433-0.444-0.791-0.858-1.081-1.239c-0.081-0.107-0.157-0.21-0.228-0.312
		c-0.747-1.062-0.975-1.837-1.039-2.272c-0.004-0.083-0.006-0.199,0.006-0.295l0.004-0.024c0.012-0.079,0.039-0.131,0.069-0.165
		c0.031-0.036,0.066-0.053,0.092-0.06c0.066-0.019,0.195,0.006,0.337,0.069c0.27,0.145,0.584,0.421,0.935,0.821
		C435.142,34.223,435.566,35.725,435.744,36.524z M449.398,36.414c-0.342,0.41-0.72,0.791-1.13,1.139
		c-0.791,0.668-1.688,1.199-2.665,1.579c-1.719,0.667-3.638,0.81-5.422,0.426c-0.031-0.01-0.056-0.021-0.085-0.034
		c-0.14-0.061-0.228-0.16-0.313-0.286c-0.086-0.127-0.114-0.264-0.124-0.414c-0.022-0.307,0.02-0.622,0.039-0.928
		c0.013-0.21,0.029-0.42,0.047-0.629c0.01-0.121,0.021-0.242,0.038-0.363c0.004-0.031,0.008-0.066,0.012-0.103
		c0.017-0.107,0.058-0.221,0.166-0.27c0.156-0.069,0.314,0.021,0.455,0.085c0.033,0.016,0.058,0.028,0.069,0.034
		c1.209,0.607,2.495,1.018,3.829,1.219l0.037,0.005c0.113,0.017,0.23,0.034,0.344,0.047c0.069,0.009,0.138,0.015,0.215,0.023
		l0.057,0.005c0.131,0.009,0.266,0.014,0.399,0.014c1.722,0,3.306-0.736,4.394-2.008C449.644,36.112,449.523,36.265,449.398,36.414z
		 M450.089,34.944l-0.044,0.076c-0.141,0.233-0.298,0.451-0.467,0.656c-1.108,1.34-2.798,2.08-4.584,1.96l-0.259-0.026
		c-0.126-0.015-0.253-0.034-0.372-0.052c-1.484-0.223-2.897-0.707-4.205-1.434c-0.56-0.331-0.742-0.843-0.78-0.974
		c-0.053-0.226-0.297-1.197-0.745-2.218c-0.48-1.095-1.302-2.489-2.485-2.91l-0.028-0.014c-0.011-0.004-0.023-0.009-0.042-0.013
		c0,0-0.119-0.034-0.119-0.033c-0.308-0.069-0.741-0.063-1.064,0.16c-0.113,0.078-0.196,0.185-0.282,0.294
		c-0.105,0.135-0.196,0.252-0.32,0.267c-0.343,0.042-0.75,0.206-0.758,0.21c-0.144,0.076-0.265,0.164-0.372,0.255
		c-0.306,0.26-0.474,0.559-0.549,0.794c-0.009,0.029-0.019,0.058-0.026,0.085c-0.012,0.05-0.021,0.096-0.025,0.136
		c-0.014,0.089-0.018,0.181-0.023,0.273c-0.046,0.896,0.374,1.949,1.251,3.137c0.04,0.054,0.075,0.106,0.116,0.161
		c0.038,0.049,0.076,0.096,0.114,0.144c0.483,0.612,0.973,1.112,1.268,1.397h-0.001c0,0,0.005,0.004,0.005,0.005
		c0.035,0.034,0.07,0.067,0.099,0.094l0.013,0.012c0.175,0.182,0.481,0.585,0.485,1.139c-0.02,1.476-0.302,2.919-0.845,4.292
		c-0.051,0.129-0.095,0.237-0.141,0.344c-0.023,0.053-0.046,0.105-0.07,0.158l-0.034,0.073c-0.355,0.714-0.853,1.324-1.45,1.806
		c-0.785,0.634-1.743,1.042-2.775,1.168c-2.495,0.101-3.562-0.758-4.536-2.279c-0.439-0.685-0.947-1.609-1.249-2.192
		c-0.151-0.292-0.302-0.564-0.457-0.822c-0.034-0.064-0.07-0.131-0.109-0.203c-0.428-0.781-1.093-1.372-1.455-1.657
		c-0.279-0.28-0.099-0.471,0.014-0.551c0.296-0.171,0.595-0.363,0.888-0.586c0.316-0.233,0.537-0.461,0.878-0.771
		c0.301-0.274,0.877-0.881,1.441-1.633c1.058-1.411,1.503-2.627,1.324-3.617l-0.001-0.015c-0.001-0.008-0.002-0.014-0.004-0.023
		l-0.011-0.035c-0.082-0.29-0.309-0.69-0.676-0.864c-0.126-0.059-0.263-0.077-0.396-0.095c-0.164-0.023-0.32-0.044-0.395-0.144
		c-0.207-0.274-0.551-0.54-0.56-0.547c-0.395-0.246-0.768-0.307-1.04-0.307c-0.05,0-0.091,0.004-0.134,0.008
		c-0.064,0.007-0.111,0.013-0.141,0.015c-0.002-0.005-0.005-0.012,0,0c-0.024,0.004-0.053,0.008-0.072,0.012l-0.082,0.021
		c-0.05,0.014-0.095,0.03-0.145,0.051c-0.04,0.014-0.078,0.035-0.117,0.052c-0.888,0.364-1.677,1.277-2.348,2.72
		c-0.023,0.049-0.047,0.093-0.069,0.144c-0.032,0.07-0.06,0.139-0.089,0.208c-0.412,0.968-0.64,1.847-0.684,2.024
		c-0.001,0.003-0.002,0.005-0.002,0.007c-0.004,0.015-0.01,0.026-0.014,0.041c-0.068,0.181-0.253,0.542-0.684,0.813
		c-1.278,0.694-2.655,1.159-4.099,1.376c-0.119,0.018-0.246,0.037-0.372,0.052c-0.068,0.008-0.137,0.015-0.207,0.022l-0.047,0.005
		c-1.083,0.071-2.119-0.168-3.015-0.658c-0.827-0.452-1.534-1.117-2.041-1.956l-0.044-0.076c-1.004-1.782-0.914-3.941,0.233-5.631
		l0.052-0.072c0.034-0.046,0.067-0.092,0.101-0.137c0.074-0.097,0.152-0.194,0.231-0.292c0.966-1.195,2.138-2.19,3.496-2.964
		c0.046-0.021,0.108-0.044,0.178-0.064c0.184-0.054,0.44-0.088,0.733-0.006l0.142,0.045c0.352,0.108,1.289,0.371,2.374,0.494
		c1.768,0.199,3.061-0.033,3.821-0.67l0.072-0.058c0.01-0.007,0.02-0.015,0.031-0.026l0.026-0.027
		c0.212-0.217,0.447-0.611,0.412-1.012c-0.012-0.138-0.065-0.263-0.116-0.386c-0.064-0.151-0.124-0.294-0.074-0.409
		c0.126-0.296,0.188-0.7,0.195-0.754c0.017-0.52-0.157-0.895-0.31-1.124c-0.005-0.008-0.009-0.015-0.016-0.025
		c-0.052-0.075-0.101-0.132-0.138-0.172l-0.059-0.059c-0.038-0.036-0.074-0.066-0.118-0.098c-0.167-0.139-0.361-0.254-0.572-0.355
		c-0.785-0.373-1.872-0.489-3.254-0.336c-0.889,0.099-1.684,0.29-2.089,0.399c-0.14,0.034-0.53,0.108-0.805,0.111
		c-0.185,0.001-0.372-0.074-0.483-0.128c-1.292-0.756-2.423-1.725-3.36-2.883c-0.075-0.092-0.154-0.191-0.231-0.293
		c-0.044-0.058-0.086-0.116-0.129-0.175l-0.021-0.029c-0.6-0.884-0.909-1.894-0.927-2.912c0-0.028-0.001-0.056-0.001-0.084
		c-0.001-0.057-0.001-0.113,0-0.169c0.025-0.848,0.254-1.695,0.69-2.469l0.045-0.076c1.058-1.749,2.993-2.748,5.052-2.616
		l0.034,0.003c0.076,0.008,0.151,0.016,0.226,0.024c0.107,0.013,0.222,0.029,0.372,0.052c1.529,0.23,2.986,0.735,4.33,1.501
		c0.048,0.028,0.087,0.051,0.131,0.076c0.109,0.072,0.273,0.2,0.338,0.356c0.074,0.178,0.14,0.393,0.17,0.496
		c0.096,0.373,0.335,1.214,0.721,2.093c0.708,1.611,1.551,2.6,2.499,2.936l0.089,0.034c0.009,0.004,0.018,0.006,0.035,0.011
		l0.041,0.009c0.119,0.029,0.248,0.044,0.374,0.044c0.17,0,0.331-0.03,0.474-0.081c0.005-0.002,0.011-0.004,0.016-0.006
		c0.068-0.025,0.132-0.055,0.189-0.091c0.011-0.007,0.024-0.012,0.035-0.02c0.114-0.079,0.198-0.187,0.28-0.293
		c0.082-0.105,0.166-0.215,0.265-0.253l0.021-0.008c0.011-0.004,0.023-0.006,0.035-0.008c0.009-0.001,0.018-0.003,0.026-0.004
		c0.033-0.005,0.066-0.01,0.1-0.016c0.308-0.059,0.624-0.187,0.631-0.19c0.823-0.434,0.981-1.166,0.978-1.337
		c0-0.007-0.001-0.017-0.002-0.026c0.07-0.975-0.407-2.143-1.418-3.473c-0.67-0.882-1.353-1.535-1.508-1.68
		c-0.044-0.049-0.102-0.117-0.179-0.215c-0.174-0.222-0.22-0.529-0.229-0.729c0-0.002,0-0.005,0-0.007
		c0-1.534,0.286-3.034,0.849-4.458c0.053-0.135,0.098-0.245,0.14-0.344c0.028-0.064,0.057-0.129,0.087-0.193l0.017-0.038
		c0.91-1.832,2.756-2.989,4.818-3.02h0.088c0.4,0.006,0.791,0.055,1.169,0.142c1.575,0.363,2.917,1.399,3.65,2.873l0.02,0.043
		c0.029,0.064,0.059,0.127,0.086,0.193c0.051,0.119,0.1,0.24,0.141,0.344c0.563,1.426,0.849,2.925,0.849,4.457
		c0,0.054-0.001,0.108-0.001,0.162c-0.017,0.215-0.078,0.512-0.278,0.687c-0.026,0.023-0.052,0.046-0.077,0.069
		c-0.068,0.062-0.562,0.52-1.131,1.19c-0.161,0.19-0.328,0.395-0.493,0.616c-1.057,1.411-1.503,2.628-1.324,3.617l0.002,0.021
		c0.002,0.012,0.004,0.024,0.009,0.042l0.005,0.02c0.001,0.01,0.003,0.019,0.007,0.036l0.01,0.03
		c0.09,0.314,0.336,0.702,0.681,0.862c0.128,0.059,0.272,0.077,0.401,0.094c0.17,0.023,0.317,0.042,0.392,0.141
		c0.208,0.27,0.555,0.537,0.564,0.543c0.79,0.487,1.513,0.255,1.663,0.167l0.014-0.009c0.896-0.42,1.687-1.419,2.349-2.97
		c0.428-1.001,0.663-1.929,0.718-2.158c0.111-0.384,0.287-0.569,0.395-0.649c0.076-0.046,0.153-0.093,0.224-0.134
		c1.344-0.767,2.801-1.271,4.33-1.501c0.149-0.023,0.264-0.039,0.372-0.052c0.076-0.009,0.152-0.017,0.228-0.024l0.026-0.003
		c2.058-0.136,3.998,0.867,5.055,2.614l0.044,0.076c0.97,1.72,0.917,3.79-0.12,5.453c-0.003,0.004-0.005,0.008-0.008,0.012
		c-0.036,0.061-0.076,0.121-0.115,0.18l-0.016,0.022c-0.042,0.058-0.084,0.116-0.128,0.173c-0.077,0.101-0.157,0.201-0.231,0.293
		c-0.966,1.194-2.137,2.189-3.481,2.956c-0.014,0.008-0.03,0.016-0.045,0.024c-0.458,0.264-1.041,0.041-1.046,0.038l-0.001,0
		c-0.113-0.035-1.143-0.346-2.374-0.486c-1.754-0.196-3.036,0.031-3.806,0.673l-0.026,0.017c-0.007,0.006-0.014,0.012-0.031,0.027
		l-0.066,0.063c-0.098,0.099-0.199,0.237-0.279,0.395c-0.093,0.187-0.155,0.401-0.136,0.619c0.012,0.136,0.064,0.263,0.117,0.389
		c0.066,0.157,0.123,0.293,0.074,0.407c-0.123,0.288-0.183,0.671-0.195,0.754c-0.031,0.922,0.531,1.422,0.684,1.503
		c0.602,0.467,1.483,0.703,2.617,0.703c0.354,0,0.743-0.024,1.155-0.07c1.03-0.117,1.927-0.353,2.254-0.446
		c0.164-0.039,0.706-0.138,1.117,0.087c1.3,0.759,2.437,1.73,3.377,2.894c0.07,0.085,0.152,0.187,0.231,0.292
		c0.039,0.051,0.077,0.103,0.114,0.155l0.036,0.05C451.001,31.004,451.092,33.163,450.089,34.944z M440.279,25.899
		c-0.057-0.013-0.114-0.026-0.169-0.042c-0.123-0.037-0.281-0.096-0.413-0.192c-0.202-0.146-0.393-0.543,0.224-0.767
		c0.065-0.023,0.11-0.042,0.143-0.057c0.199-0.065,0.428-0.123,0.691-0.174c0.248-0.048,0.528-0.073,0.83-0.073
		c1.113,0,2.283,0.333,2.784,0.493c0.044,0.017,0.202,0.082,0.256,0.202c0.063,0.139,0.065,0.293-0.173,0.353
		c-0.005,0.001-0.009,0.002-0.014,0.003c-0.935,0.228-2.728,0.569-4.127,0.26l0.004-0.001
		C440.316,25.906,440.3,25.903,440.279,25.899z M451.419,32.158c-0.137,0.727-0.36,1.431-0.665,2.101
		c0.081-0.22,0.146-0.444,0.199-0.67c0.352-1.513,0.068-3.122-0.839-4.459l-0.033-0.047c-0.041-0.056-0.082-0.113-0.124-0.168
		c-0.078-0.101-0.158-0.201-0.237-0.3c-0.993-1.226-2.194-2.246-3.571-3.031c-0.503-0.288-1.039-0.545-1.6-0.77
		c-0.551-0.18-1.781-0.533-2.968-0.533c-0.302,0-0.6,0.023-0.884,0.077c-0.943,0.18-1.51,0.458-1.7,0.825
		c-0.014,0.017-0.032,0.033-0.044,0.051c-0.037-0.042-0.074-0.088-0.107-0.138c-0.116-0.214-0.161-0.43-0.132-0.642
		c0.056-0.415,0.161-0.573,0.246-0.7c0.035-0.053,0.068-0.103,0.091-0.162c0.05-0.131,0.039-0.287-0.036-0.45
		c-0.004-0.009-0.007-0.019-0.012-0.027c-0.033-0.061-0.083-0.126-0.152-0.197l-0.015-0.016c-0.026-0.025-0.066-0.066-0.093-0.096
		c-0.094-0.105-0.144-0.213-0.152-0.321c0.005-0.121,0.046-0.243,0.1-0.356c0.066-0.139,0.155-0.264,0.245-0.35l0.038-0.037
		l0.026-0.017c1.685-1.402,5.716-0.195,5.88-0.146l0.056,0.014c0.684,0.205,1.338,0.495,1.962,0.851
		c2.482,1.416,4.15,3.837,4.578,6.643C451.628,30.113,451.61,31.146,451.419,32.158z"/>
	<path fill-rule="evenodd" clip-rule="evenodd" fill="#DDDDDD" d="M0,22.001h390v1H0V22.001z"/>
	<path fill-rule="evenodd" clip-rule="evenodd" fill="#DDDDDD" d="M470,22.001h390v1H470V22.001z"/>
</g>
</svg>
