<svg xmlns="http://www.w3.org/2000/svg" class="qodef-normal-logo" viewBox="0 0 242.006 38.998">
  <style>
    svg:hover .hoverable{fill:#fad7d3}
  </style>
  <g fill="#51413A" class="hoverable">
    <path d="M28.532 38.504h-5.469L3.646 5v33.504H2.464V2.723C1.675 1.469.855.777 0 .644V.496h3.055c1.38 0 2.538.33 3.473.99.936.659 1.683 1.583 2.242 2.77l18.58 31.922V.496h1.182v38.008zM83.467 31.377c0 1.485-.321 2.715-.961 3.688-.64.973-1.461 1.749-2.463 2.326-1.002.578-2.126.99-3.374 1.237-1.25.248-2.481.371-3.696.371-1.182 0-2.423-.098-3.72-.296-1.298-.198-2.48-.568-3.547-1.113-1.068-.545-1.939-1.295-2.612-2.253-.673-.957-1.009-2.178-1.009-3.662h5.123c0 .957.107 1.848.321 2.672.213.826.558 1.543 1.034 2.153.476.611 1.075 1.097 1.798 1.46.723.363 1.593.544 2.612.544.985 0 1.831-.215 2.537-.643.707-.428 1.282-.99 1.725-1.683.443-.693.771-1.476.986-2.35.212-.874.319-1.74.319-2.598 0-1.847-.459-3.382-1.378-4.602-.92-1.22-2.365-1.831-4.336-1.831-1.084 0-2.216-.066-3.399-.199-1.183-.131-2.266-.421-3.252-.865-.985-.445-1.798-1.09-2.439-1.93-.641-.842-.962-1.955-.962-3.341 0-1.418.297-2.589.888-3.513.591-.924 1.363-1.658 2.315-2.203.952-.544 2.012-.923 3.177-1.138 1.166-.215 2.341-.322 3.523-.322 1.116 0 2.233.107 3.35.322 1.116.215 2.134.594 3.055 1.138.918.545 1.657 1.262 2.216 2.153.559.891.839 1.997.839 3.316h-4.238c0-.791-.115-1.567-.344-2.326-.231-.759-.567-1.443-1.01-2.054-.443-.61-1.002-1.105-1.675-1.485-.674-.378-1.438-.568-2.29-.568-.954 0-1.75.197-2.39.593-.64.397-1.167.908-1.576 1.534-.411.627-.707 1.336-.887 2.128-.182.791-.272 1.6-.272 2.425 0 .792.124 1.534.369 2.227.246.693.607 1.311 1.084 1.855.475.545 1.042.974 1.7 1.287.656.314 1.396.47 2.216.47 1.215 0 2.446.083 3.696.248 1.248.165 2.389.504 3.423 1.015 1.034.511 1.88 1.229 2.537 2.152.657.924.987 2.144.987 3.661zM141.73 38.504h-2.463c-1.38 0-2.546-.478-3.498-1.435-.954-.957-1.428-2.128-1.428-3.514V.496h4.927v35.385c0 .693.247 1.28.739 1.757.492.478 1.067.718 1.724.718v.148zM169.348 25.141c0 1.782-.296 3.506-.886 5.172-.591 1.667-1.43 3.143-2.514 4.43-1.083 1.286-2.381 2.318-3.891 3.093-1.512.774-3.203 1.162-5.074 1.162-1.872 0-3.564-.388-5.074-1.162-1.512-.776-2.808-1.807-3.892-3.093-1.083-1.287-1.922-2.764-2.513-4.43s-.887-3.39-.887-5.172c0-1.781.296-3.505.887-5.171.591-1.666 1.43-3.143 2.513-4.43 1.084-1.286 2.381-2.317 3.892-3.092 1.51-.775 3.203-1.164 5.074-1.164 1.872 0 3.563.388 5.074 1.164 1.51.775 2.808 1.806 3.891 3.092 1.084 1.287 1.923 2.764 2.514 4.43.591 1.666.886 3.391.886 5.171zm-5.271 0c0-.693-.043-1.501-.124-2.424-.083-.924-.231-1.881-.443-2.871-.215-.99-.501-1.972-.863-2.945-.361-.973-.805-1.838-1.33-2.597-.526-.76-1.142-1.37-1.848-1.832-.707-.462-1.535-.693-2.488-.693-.954 0-1.782.23-2.488.693-.707.462-1.323 1.072-1.848 1.832-.525.759-.968 1.624-1.33 2.597-.362.973-.65 1.955-.863 2.945-.215.99-.363 1.947-.443 2.871-.083.923-.124 1.732-.124 2.424 0 .693.041 1.503.124 2.425.081.925.228 1.881.443 2.871.212.99.501 1.972.863 2.944.361.974.804 1.839 1.33 2.598.525.759 1.141 1.369 1.848 1.831.706.462 1.534.692 2.488.692.952 0 1.781-.23 2.488-.692.706-.462 1.322-1.072 1.848-1.831.525-.759.968-1.624 1.33-2.598.361-.973.648-1.954.863-2.944.213-.99.36-1.947.443-2.871.081-.922.124-1.731.124-2.425zM197.357 25.141c0 1.782-.295 3.506-.886 5.172-.591 1.667-1.429 3.143-2.513 4.43-1.083 1.286-2.381 2.318-3.892 3.093-1.51.774-3.203 1.162-5.073 1.162-1.873 0-3.564-.388-5.076-1.162-1.512-.776-2.807-1.807-3.891-3.093-1.084-1.287-1.922-2.764-2.513-4.43-.592-1.666-.888-3.39-.888-5.172 0-1.781.295-3.505.888-5.171.591-1.666 1.429-3.143 2.513-4.43 1.084-1.286 2.38-2.317 3.891-3.092 1.512-.775 3.203-1.164 5.076-1.164 1.871 0 3.563.388 5.073 1.164 1.512.775 2.809 1.806 3.892 3.092 1.084 1.287 1.922 2.764 2.513 4.43s.886 3.391.886 5.171zm-5.27 0c0-.693-.042-1.501-.123-2.424-.083-.924-.231-1.881-.443-2.871-.215-.99-.503-1.972-.864-2.945-.362-.973-.805-1.838-1.33-2.597-.525-.76-1.141-1.37-1.848-1.832-.706-.462-1.534-.693-2.487-.693-.953 0-1.782.23-2.489.693-.707.462-1.323 1.072-1.848 1.832-.525.759-.968 1.624-1.33 2.597-.361.973-.649 1.955-.861 2.945-.215.99-.363 1.947-.443 2.871-.083.923-.124 1.732-.124 2.424 0 .693.041 1.503.124 2.425.081.925.228 1.881.443 2.871.212.99.5 1.972.861 2.944.361.974.805 1.839 1.33 2.598.525.759 1.141 1.369 1.848 1.831.707.462 1.535.692 2.489.692.952 0 1.781-.23 2.487-.692.707-.462 1.323-1.072 1.848-1.831.525-.759.968-1.624 1.33-2.598.361-.973.649-1.954.864-2.944.212-.99.36-1.947.443-2.871.08-.922.123-1.731.123-2.425zM207.045 38.504h-4.928V14.55c0-.758-.246-1.385-.739-1.88-.493-.496-1.068-.742-1.724-.742v-.148h2.463c1.445 0 2.627.479 3.548 1.435.919.957 1.38 2.128 1.38 3.514v21.775zM94.768 12.522h4.927v-.742h-4.927V3.861h-4.927v7.918h-3.399v.742h3.399v20.044c0 .825.156 1.591.468 2.302.313.709.739 1.336 1.281 1.881.542.545 1.166.973 1.873 1.286.705.314 1.468.47 2.29.47h3.449v-.148c-1.249 0-2.3-.429-3.153-1.287-.855-.858-1.282-1.914-1.282-3.168V12.522zM238.854 37.07c-.855-.859-1.282-1.913-1.282-3.168v-2.516h.001V19.45c0-1.121-.189-2.177-.566-3.167-.378-.989-.896-1.856-1.552-2.598-.657-.743-1.438-1.328-2.341-1.757-.902-.429-1.88-.644-2.93-.644-1.019 0-1.996.215-2.932.644-.421.193-.811.429-1.186.684v-.005s-.047.028-.123.076c-.005.004-.01.007-.014.01-.516.333-2.446 1.734-3.59 4.754l-.002.006c-.088-.399-.193-.791-.337-1.171-.377-.989-.893-1.856-1.548-2.598-.655-.743-1.432-1.328-2.332-1.757-.9-.429-1.874-.644-2.922-.644s-2.038.215-2.971.644c-.933.429-1.751 1.014-2.456 1.757-.702.742-1.268 1.601-1.693 2.574-.014.032-.023.066-.037.098v.792c.258-.639.594-1.213 1.023-1.707.46-.527.993-.94 1.602-1.237.607-.297 1.256-.445 1.946-.445s1.346.148 1.971.445c.623.297 1.157.701 1.6 1.213.444.511.796 1.113 1.06 1.806.263.693.394 1.435.394 2.227v19.054h4.926V19.45c0-.021-.003-.041-.003-.062.041-.748.179-1.456.43-2.115.263-.693.616-1.303 1.059-1.831.443-.527.968-.94 1.577-1.237.607-.297 1.256-.445 1.946-.445.689 0 1.346.148 1.971.445.623.297 1.166.701 1.625 1.213.459.511.821 1.113 1.084 1.806.263.693.395 1.435.395 2.227v10.986h-.002v2.129c0 .825.156 1.591.469 2.303.312.709.739 1.335 1.281 1.88.542.545 1.166.974 1.873 1.286.705.314 1.468.47 2.29.47h3.449v-.148c-1.25-.001-2.301-.43-3.153-1.287zM38.862 24.647h.003v-.125c0 .042-.003.083-.003.125zM38.865 25.712v-.125h-.003c0 .043.003.083.003.125z"/>
    <path d="M38.865 25.712c0-.042-.003-.082-.003-.125h.003v-.94h-.003c0-.042.003-.083.003-.125v-.273h.007c.024-1.725.196-3.319.533-4.774.36-1.567.853-2.92 1.479-4.058.623-1.138 1.361-2.028 2.216-2.673.854-.644 1.806-.964 2.857-.964 1.018 0 1.971.32 2.858.964.887.644 1.65 1.535 2.29 2.673.641 1.138 1.141 2.491 1.503 4.058.361 1.568.542 3.291.542 5.172H39.98v.94h18.095v-.445c0-1.913-.286-3.711-.862-5.394-.575-1.683-1.388-3.15-2.439-4.404-1.051-1.254-2.323-2.243-3.819-2.97-1.494-.725-3.162-1.089-5.001-1.089-1.872 0-3.564.365-5.073 1.089-1.512.727-2.793 1.716-3.844 2.97-1.051 1.254-1.856 2.721-2.414 4.404-.559 1.683-.838 3.481-.838 5.394 0 1.915.287 3.712.863 5.395.574 1.683 1.387 3.152 2.439 4.405 1.05 1.254 2.323 2.243 3.818 2.97 1.494.725 3.178 1.087 5.049 1.087 3.383 0 6.003-.642 7.859-1.929 1.856-1.288 3.079-3.382 3.67-6.286h-4.138c-.132 1.419-.402 2.615-.812 3.588-.411.973-.937 1.765-1.577 2.376-.64.611-1.387 1.056-2.241 1.336-.855.281-1.773.421-2.759.421-1.051 0-2.003-.322-2.857-.965-.855-.643-1.593-1.533-2.216-2.671-.625-1.14-1.118-2.501-1.479-4.084-.324-1.416-.494-2.957-.528-4.61h-.011v-.463z"/>
    <path d="M38.865 26.173h.011c-.003-.154-.011-.305-.011-.461v.461zM38.865 24.249v.273c0-.092.006-.181.007-.273h-.007zM128.183 25.42c-.013-.028-.11-.329-.123-.358-1.575-3.389-5.294-4.598-5.934-4.783-1.729-.42-3.025-.512-3.848-.516l-.168.068c.267.097.551.206.805.326 1.018.481 1.808 1.102 2.537 1.866.756.793 1.338 1.749 1.749 2.87.41 1.122.616 2.344.616 3.663 0 1.354-.206 2.574-.616 3.662-.412 1.089-1.002 2.03-1.774 2.821-.771.792-1.699 1.403-2.783 1.831-1.084.429-2.3.644-3.646.644h-5.123V21.82c.239-.255.548-.567.809-.774.509-.402 2.006-1.486 4.11-1.753.734-.094 1.62-.15 2.582-.292.07-.012.126-.029.195-.041.838-.132 1.71-.323 2.549-.638 2.685-.888 4.008-2.141 4.893-3.212 1.146-1.388 1.473-2.868 1.473-2.868l-.007.002c.189-.67.293-1.398.293-2.197 0-1.583-.245-3.002-.739-4.256-.492-1.253-1.191-2.308-2.093-3.167-.903-.858-1.996-1.509-3.276-1.954-1.282-.447-2.694-.67-4.238-.67-1.314 0-2.579.174-3.794.521-1.036.295-2.01.776-2.927 1.419.055.067.111.144.169.23.556-.294 1.139-.543 1.772-.71.821-.213 1.625-.322 2.414-.322 1.347 0 2.546.216 3.597.644 1.051.429 1.946 1.038 2.686 1.831.739.791 1.297 1.732 1.675 2.82.376 1.089.566 2.294.566 3.612 0 1.385-.161 2.619-.45 3.733-.545 1.79-1.894 2.811-3.446 3.402-1.298.494-2.885.657-4.509 1.072-1.625.414-2.57.974-3.055 1.291-.362.236-.966.716-1.25.945V5.444c0-1.386-.477-2.556-1.43-3.514-.952-.957-2.118-1.435-3.498-1.435h-2.463v.149c.657 0 1.232.248 1.724.742.493.496.739 1.073.739 1.732v35.386h12.613c1.51 0 2.939-.215 4.287-.643 1.346-.429 2.521-1.065 3.522-1.906s1.79-1.88 2.365-3.118c.575-1.237.862-2.663.862-4.28 0-1.242-.083-2.098-.412-3.137zM28.532 38.504h-5.469L3.646 5v33.504H2.464V2.723C1.675 1.469.855.777 0 .644V.496h3.055c1.38 0 2.538.33 3.473.99.936.659 1.683 1.583 2.242 2.77l18.58 31.922V.496h1.182v38.008zM83.467 31.377c0 1.485-.321 2.715-.961 3.688-.64.973-1.461 1.749-2.463 2.326-1.002.578-2.126.99-3.374 1.237-1.25.248-2.481.371-3.696.371-1.182 0-2.423-.098-3.72-.296-1.298-.198-2.48-.568-3.547-1.113-1.068-.545-1.939-1.295-2.612-2.253-.673-.957-1.009-2.178-1.009-3.662h5.123c0 .957.107 1.848.321 2.672.213.826.558 1.543 1.034 2.153.476.611 1.075 1.097 1.798 1.46.723.363 1.593.544 2.612.544.985 0 1.831-.215 2.537-.643.707-.428 1.282-.99 1.725-1.683.443-.693.771-1.476.986-2.35.212-.874.319-1.74.319-2.598 0-1.847-.459-3.382-1.378-4.602-.92-1.22-2.365-1.831-4.336-1.831-1.084 0-2.216-.066-3.399-.199-1.183-.131-2.266-.421-3.252-.865-.985-.445-1.798-1.09-2.439-1.93-.641-.842-.962-1.955-.962-3.341 0-1.418.297-2.589.888-3.513.591-.924 1.363-1.658 2.315-2.203.952-.544 2.012-.923 3.177-1.138 1.166-.215 2.341-.322 3.523-.322 1.116 0 2.233.107 3.35.322 1.116.215 2.134.594 3.055 1.138.918.545 1.657 1.262 2.216 2.153.559.891.839 1.997.839 3.316h-4.238c0-.791-.115-1.567-.344-2.326-.231-.759-.567-1.443-1.01-2.054-.443-.61-1.002-1.105-1.675-1.485-.674-.378-1.438-.568-2.29-.568-.954 0-1.75.197-2.39.593-.64.397-1.167.908-1.576 1.534-.411.627-.707 1.336-.887 2.128-.182.791-.272 1.6-.272 2.425 0 .792.124 1.534.369 2.227.246.693.607 1.311 1.084 1.855.475.545 1.042.974 1.7 1.287.656.314 1.396.47 2.216.47 1.215 0 2.446.083 3.696.248 1.248.165 2.389.504 3.423 1.015 1.034.511 1.88 1.229 2.537 2.152.657.924.987 2.144.987 3.661zM141.73 38.504h-2.463c-1.38 0-2.546-.478-3.498-1.435-.954-.957-1.428-2.128-1.428-3.514V.496h4.927v35.385c0 .693.247 1.28.739 1.757.492.478 1.067.718 1.724.718v.148zM169.348 25.141c0 1.782-.296 3.506-.886 5.172-.591 1.667-1.43 3.143-2.514 4.43-1.083 1.286-2.381 2.318-3.891 3.093-1.512.774-3.203 1.162-5.074 1.162-1.872 0-3.564-.388-5.074-1.162-1.512-.776-2.808-1.807-3.892-3.093-1.083-1.287-1.922-2.764-2.513-4.43s-.887-3.39-.887-5.172c0-1.781.296-3.505.887-5.171.591-1.666 1.43-3.143 2.513-4.43 1.084-1.286 2.381-2.317 3.892-3.092 1.51-.775 3.203-1.164 5.074-1.164 1.872 0 3.563.388 5.074 1.164 1.51.775 2.808 1.806 3.891 3.092 1.084 1.287 1.923 2.764 2.514 4.43.591 1.666.886 3.391.886 5.171zm-5.271 0c0-.693-.043-1.501-.124-2.424-.083-.924-.231-1.881-.443-2.871-.215-.99-.501-1.972-.863-2.945-.361-.973-.805-1.838-1.33-2.597-.526-.76-1.142-1.37-1.848-1.832-.707-.462-1.535-.693-2.488-.693-.954 0-1.782.23-2.488.693-.707.462-1.323 1.072-1.848 1.832-.525.759-.968 1.624-1.33 2.597-.362.973-.65 1.955-.863 2.945-.215.99-.363 1.947-.443 2.871-.083.923-.124 1.732-.124 2.424 0 .693.041 1.503.124 2.425.081.925.228 1.881.443 2.871.212.99.501 1.972.863 2.944.361.974.804 1.839 1.33 2.598.525.759 1.141 1.369 1.848 1.831.706.462 1.534.692 2.488.692.952 0 1.781-.23 2.488-.692.706-.462 1.322-1.072 1.848-1.831.525-.759.968-1.624 1.33-2.598.361-.973.648-1.954.863-2.944.213-.99.36-1.947.443-2.871.081-.922.124-1.731.124-2.425zM197.357 25.141c0 1.782-.295 3.506-.886 5.172-.591 1.667-1.429 3.143-2.513 4.43-1.083 1.286-2.381 2.318-3.892 3.093-1.51.774-3.203 1.162-5.073 1.162-1.873 0-3.564-.388-5.076-1.162-1.512-.776-2.807-1.807-3.891-3.093-1.084-1.287-1.922-2.764-2.513-4.43-.592-1.666-.888-3.39-.888-5.172 0-1.781.295-3.505.888-5.171.591-1.666 1.429-3.143 2.513-4.43 1.084-1.286 2.38-2.317 3.891-3.092 1.512-.775 3.203-1.164 5.076-1.164 1.871 0 3.563.388 5.073 1.164 1.512.775 2.809 1.806 3.892 3.092 1.084 1.287 1.922 2.764 2.513 4.43s.886 3.391.886 5.171zm-5.27 0c0-.693-.042-1.501-.123-2.424-.083-.924-.231-1.881-.443-2.871-.215-.99-.503-1.972-.864-2.945-.362-.973-.805-1.838-1.33-2.597-.525-.76-1.141-1.37-1.848-1.832-.706-.462-1.534-.693-2.487-.693-.953 0-1.782.23-2.489.693-.707.462-1.323 1.072-1.848 1.832-.525.759-.968 1.624-1.33 2.597-.361.973-.649 1.955-.861 2.945-.215.99-.363 1.947-.443 2.871-.083.923-.124 1.732-.124 2.424 0 .693.041 1.503.124 2.425.081.925.228 1.881.443 2.871.212.99.5 1.972.861 2.944.361.974.805 1.839 1.33 2.598.525.759 1.141 1.369 1.848 1.831.707.462 1.535.692 2.489.692.952 0 1.781-.23 2.487-.692.707-.462 1.323-1.072 1.848-1.831.525-.759.968-1.624 1.33-2.598.361-.973.649-1.954.864-2.944.212-.99.36-1.947.443-2.871.08-.922.123-1.731.123-2.425zM207.045 38.504h-4.928V14.55c0-.758-.246-1.385-.739-1.88-.493-.496-1.068-.742-1.724-.742v-.148h2.463c1.445 0 2.627.479 3.548 1.435.919.957 1.38 2.128 1.38 3.514v21.775zM94.768 12.522h4.927v-.742h-4.927V3.861h-4.927v7.918h-3.399v.742h3.399v20.044c0 .825.156 1.591.468 2.302.313.709.739 1.336 1.281 1.881.542.545 1.166.973 1.873 1.286.705.314 1.468.47 2.29.47h3.449v-.148c-1.249 0-2.3-.429-3.153-1.287-.855-.858-1.282-1.914-1.282-3.168V12.522zM238.854 37.07c-.855-.859-1.282-1.913-1.282-3.168v-2.516h.001V19.45c0-1.121-.189-2.177-.566-3.167-.378-.989-.896-1.856-1.552-2.598-.657-.743-1.438-1.328-2.341-1.757-.902-.429-1.88-.644-2.93-.644-1.019 0-1.996.215-2.932.644-.421.193-.811.429-1.186.684v-.005s-.047.028-.123.076c-.005.004-.01.007-.014.01-.516.333-2.446 1.734-3.59 4.754l-.002.006c-.088-.399-.193-.791-.337-1.171-.377-.989-.893-1.856-1.548-2.598-.655-.743-1.432-1.328-2.332-1.757-.9-.429-1.874-.644-2.922-.644s-2.038.215-2.971.644c-.933.429-1.751 1.014-2.456 1.757-.702.742-1.268 1.601-1.693 2.574-.014.032-.023.066-.037.098v.792c.258-.639.594-1.213 1.023-1.707.46-.527.993-.94 1.602-1.237.607-.297 1.256-.445 1.946-.445s1.346.148 1.971.445c.623.297 1.157.701 1.6 1.213.444.511.796 1.113 1.06 1.806.263.693.394 1.435.394 2.227v19.054h4.926V19.45c0-.021-.003-.041-.003-.062.041-.748.179-1.456.43-2.115.263-.693.616-1.303 1.059-1.831.443-.527.968-.94 1.577-1.237.607-.297 1.256-.445 1.946-.445.689 0 1.346.148 1.971.445.623.297 1.166.701 1.625 1.213.459.511.821 1.113 1.084 1.806.263.693.395 1.435.395 2.227v10.986h-.002v2.129c0 .825.156 1.591.469 2.303.312.709.739 1.335 1.281 1.88.542.545 1.166.974 1.873 1.286.705.314 1.468.47 2.29.47h3.449v-.148c-1.25-.001-2.301-.43-3.153-1.287zM38.862 24.647h.003v-.125c0 .042-.003.083-.003.125zM38.865 25.712v-.125h-.003c0 .043.003.083.003.125z"/>
    <path d="M38.865 25.712c0-.042-.003-.082-.003-.125h.003v-.94h-.003c0-.042.003-.083.003-.125v-.273h.007c.024-1.725.196-3.319.533-4.774.36-1.567.853-2.92 1.479-4.058.623-1.138 1.361-2.028 2.216-2.673.854-.644 1.806-.964 2.857-.964 1.018 0 1.971.32 2.858.964.887.644 1.65 1.535 2.29 2.673.641 1.138 1.141 2.491 1.503 4.058.361 1.568.542 3.291.542 5.172H39.98v.94h18.095v-.445c0-1.913-.286-3.711-.862-5.394-.575-1.683-1.388-3.15-2.439-4.404-1.051-1.254-2.323-2.243-3.819-2.97-1.494-.725-3.162-1.089-5.001-1.089-1.872 0-3.564.365-5.073 1.089-1.512.727-2.793 1.716-3.844 2.97-1.051 1.254-1.856 2.721-2.414 4.404-.559 1.683-.838 3.481-.838 5.394 0 1.915.287 3.712.863 5.395.574 1.683 1.387 3.152 2.439 4.405 1.05 1.254 2.323 2.243 3.818 2.97 1.494.725 3.178 1.087 5.049 1.087 3.383 0 6.003-.642 7.859-1.929 1.856-1.288 3.079-3.382 3.67-6.286h-4.138c-.132 1.419-.402 2.615-.812 3.588-.411.973-.937 1.765-1.577 2.376-.64.611-1.387 1.056-2.241 1.336-.855.281-1.773.421-2.759.421-1.051 0-2.003-.322-2.857-.965-.855-.643-1.593-1.533-2.216-2.671-.625-1.14-1.118-2.501-1.479-4.084-.324-1.416-.494-2.957-.528-4.61h-.011v-.463z"/>
    <path d="M38.865 26.173h.011c-.003-.154-.011-.305-.011-.461v.461zM38.865 24.249v.273c0-.092.006-.181.007-.273h-.007zM128.183 25.42c-.013-.028-.11-.329-.123-.358-1.575-3.389-5.294-4.598-5.934-4.783-1.729-.42-3.025-.512-3.848-.516l-.168.068c.267.097.551.206.805.326 1.018.481 1.808 1.102 2.537 1.866.756.793 1.338 1.749 1.749 2.87.41 1.122.616 2.344.616 3.663 0 1.354-.206 2.574-.616 3.662-.412 1.089-1.002 2.03-1.774 2.821-.771.792-1.699 1.403-2.783 1.831-1.084.429-2.3.644-3.646.644h-5.123V21.82c.239-.255.548-.567.809-.774.509-.402 2.006-1.486 4.11-1.753.734-.094 1.62-.15 2.582-.292.07-.012.126-.029.195-.041.838-.132 1.71-.323 2.549-.638 2.685-.888 4.008-2.141 4.893-3.212 1.146-1.388 1.473-2.868 1.473-2.868l-.007.002c.189-.67.293-1.398.293-2.197 0-1.583-.245-3.002-.739-4.256-.492-1.253-1.191-2.308-2.093-3.167-.903-.858-1.996-1.509-3.276-1.954-1.282-.447-2.694-.67-4.238-.67-1.314 0-2.579.174-3.794.521-1.036.295-2.01.776-2.927 1.419.055.067.111.144.169.23.556-.294 1.139-.543 1.772-.71.821-.213 1.625-.322 2.414-.322 1.347 0 2.546.216 3.597.644 1.051.429 1.946 1.038 2.686 1.831.739.791 1.297 1.732 1.675 2.82.376 1.089.566 2.294.566 3.612 0 1.385-.161 2.619-.45 3.733-.545 1.79-1.894 2.811-3.446 3.402-1.298.494-2.885.657-4.509 1.072-1.625.414-2.57.974-3.055 1.291-.362.236-.966.716-1.25.945V5.444c0-1.386-.477-2.556-1.43-3.514-.952-.957-2.118-1.435-3.498-1.435h-2.463v.149c.657 0 1.232.248 1.724.742.493.496.739 1.073.739 1.732v35.386h12.613c1.51 0 2.939-.215 4.287-.643 1.346-.429 2.521-1.065 3.522-1.906s1.79-1.88 2.365-3.118c.575-1.237.862-2.663.862-4.28 0-1.242-.083-2.098-.412-3.137z"/>
  </g>
</svg>
