<?xml version="1.0" encoding="utf-8"?>
<!-- Generator: Adobe Illustrator 23.0.1, SVG Export Plug-In . SVG Version: 6.00 Build 0)  -->
<svg version="1.1" id="Layer_1" xmlns="http://www.w3.org/2000/svg" xmlns:xlink="http://www.w3.org/1999/xlink" x="0px" y="0px"
	 viewBox="0 0 49.11 58.37" style="enable-background:new 0 0 49.11 58.37;" xml:space="preserve">
<style type="text/css">
	.st0{fill:#D53940;}
</style>
<path class="st0" d="M24.58,11.18c-4.66,0-13.48,0.43-13.48,2.08c0,0.02,0.01,0.04,0.01,0.06h-0.05v1.69c0,0.42,0.59,0.71,0.96,0.84
	c0.03,0.37,0.12,1.25,0.17,1.5c0.06,0.29,0.33,0.56,0.48,0.68c0.13,1.95,1.54,23.62,1.77,25.55c0.27,2.25,5.32,3.6,10.05,3.6h0.14
	c4.73,0,9.79-1.35,10.05-3.6c0.23-1.93,1.64-23.6,1.77-25.55c0.15-0.12,0.42-0.39,0.48-0.68c0.05-0.25,0.13-1.14,0.17-1.5
	c0.37-0.14,0.96-0.42,0.96-0.84v-1.67c0.01-0.03,0.01-0.05,0.01-0.08C38.06,11.62,29.24,11.18,24.58,11.18z"/>
</svg>
